<svg xmlns="http://www.w3.org/2000/svg" width="1200" height="760" viewBox="0 0 1200 760">
  <rect x="0" y="0" width="1200" height="760" fill="#fdfaf4"/>
  <text x="40.0" y="30.0" font-family="Inter, system-ui, sans-serif" font-size="13" font-weight="600" fill="#6b665c" text-anchor="start" letter-spacing="0.5">W7</text>
  <text x="40.0" y="60.0" font-family="Fraunces, Georgia, serif" font-size="26" font-weight="600" fill="#1a1a1a" text-anchor="start">The Village</text>
  <rect x="1003.8" y="22.0" width="156.2" height="25.0" rx="12.5" fill="none" stroke="#e87722" stroke-width="1.5"/>
  <text x="1081.9" y="38.7" font-family="Inter, system-ui, sans-serif" font-size="13" font-weight="400" fill="#e87722" text-anchor="middle">URM 6.4, 4.5, 7.5</text>
  <line x1="40.0" y1="74.0" x2="1160.0" y2="74.0" stroke="#e7e1d3" stroke-width="1.5"/>
  <rect x="40.0" y="100.0" width="796.0" height="596.0" rx="4" fill="#f7f2e7" stroke="#1a1a1a" stroke-width="1.5"/>
  <text x="58.0" y="126.0" font-family="Inter, system-ui, sans-serif" font-size="13" font-weight="400" fill="#6b665c" text-anchor="start">Top-down village map</text>
  <rect x="100.0" y="170.0" width="120.0" height="90.0" rx="4" fill="#fdfaf4" stroke="#1a1a1a" stroke-width="1.5"/>
  <text x="160.0" y="219.0" font-family="Inter, system-ui, sans-serif" font-size="11" font-weight="400" fill="#6b665c" text-anchor="middle">Hall</text>
  <rect x="300.0" y="160.0" width="100.0" height="70.0" rx="4" fill="#fdfaf4" stroke="#1a1a1a" stroke-width="1.5"/>
  <text x="350.0" y="199.0" font-family="Inter, system-ui, sans-serif" font-size="11" font-weight="400" fill="#6b665c" text-anchor="middle">Library</text>
  <rect x="460.0" y="200.0" width="130.0" height="100.0" rx="4" fill="#fdfaf4" stroke="#1a1a1a" stroke-width="1.5"/>
  <text x="525.0" y="254.0" font-family="Inter, system-ui, sans-serif" font-size="11" font-weight="400" fill="#6b665c" text-anchor="middle">Garden</text>
  <rect x="130.0" y="320.0" width="110.0" height="80.0" rx="4" fill="#fdfaf4" stroke="#1a1a1a" stroke-width="1.5"/>
  <text x="185.0" y="364.0" font-family="Inter, system-ui, sans-serif" font-size="11" font-weight="400" fill="#6b665c" text-anchor="middle">Workshop</text>
  <rect x="340.0" y="330.0" width="120.0" height="90.0" rx="4" fill="#fdfaf4" stroke="#1a1a1a" stroke-width="1.5"/>
  <text x="400.0" y="379.0" font-family="Inter, system-ui, sans-serif" font-size="11" font-weight="400" fill="#6b665c" text-anchor="middle">Market</text>
  <line x1="160.0" y1="260.0" x2="160.0" y2="290.0" stroke="#6b665c" stroke-width="1.5" stroke-dasharray="4,4"/>
  <line x1="160.0" y1="290.0" x2="185.0" y2="290.0" stroke="#6b665c" stroke-width="1.5" stroke-dasharray="4,4"/>
  <line x1="185.0" y1="290.0" x2="185.0" y2="320.0" stroke="#6b665c" stroke-width="1.5" stroke-dasharray="4,4"/>
  <line x1="220.0" y1="215.0" x2="300.0" y2="215.0" stroke="#6b665c" stroke-width="1.5" stroke-dasharray="4,4"/>
  <line x1="400.0" y1="195.0" x2="460.0" y2="195.0" stroke="#6b665c" stroke-width="1.5" stroke-dasharray="4,4"/>
  <line x1="460.0" y1="195.0" x2="460.0" y2="240.0" stroke="#6b665c" stroke-width="1.5" stroke-dasharray="4,4"/>
  <line x1="240.0" y1="360.0" x2="340.0" y2="360.0" stroke="#6b665c" stroke-width="1.5" stroke-dasharray="4,4"/>
  <line x1="340.0" y1="360.0" x2="340.0" y2="375.0" stroke="#6b665c" stroke-width="1.5" stroke-dasharray="4,4"/>
  <rect x="726.4" y="652.0" width="93.6" height="28.0" rx="14.0" fill="#fdfaf4" stroke="#e7e1d3" stroke-width="1.5"/>
  <text x="773.2" y="670.0" font-family="Inter, system-ui, sans-serif" font-size="12" font-weight="400" fill="#6b665c" text-anchor="middle">Voice: off</text>
  <text x="860.0" y="122.0" font-family="Fraunces, Georgia, serif" font-size="17" font-weight="600" fill="#1a1a1a" text-anchor="start">Your cohort</text>
  <line x1="860.0" y1="190.0" x2="1160.0" y2="190.0" stroke="#e7e1d3" stroke-width="1"/>
  <circle cx="875.0" cy="160.0" r="15.0" fill="#fdfaf4" stroke="#1a1a1a" stroke-width="1.5"/>
  <text x="904.0" y="156.0" font-family="Inter, system-ui, sans-serif" font-size="14" font-weight="600" fill="#1a1a1a" text-anchor="start">Amara</text>
  <rect x="1097.7" y="146.0" width="62.3" height="22.0" rx="11.0" fill="none" stroke="#e87722" stroke-width="1.5"/>
  <text x="1128.9" y="161.0" font-family="Inter, system-ui, sans-serif" font-size="11" font-weight="400" fill="#e87722" text-anchor="middle">Helper</text>
  <line x1="860.0" y1="242.0" x2="1160.0" y2="242.0" stroke="#e7e1d3" stroke-width="1"/>
  <circle cx="875.0" cy="212.0" r="15.0" fill="#fdfaf4" stroke="#1a1a1a" stroke-width="1.5"/>
  <text x="904.0" y="208.0" font-family="Inter, system-ui, sans-serif" font-size="14" font-weight="600" fill="#1a1a1a" text-anchor="start">Theo</text>
  <rect x="1116.9" y="198.0" width="43.1" height="22.0" rx="11.0" fill="none" stroke="#e7e1d3" stroke-width="1.5"/>
  <text x="1138.4" y="213.0" font-family="Inter, system-ui, sans-serif" font-size="11" font-weight="400" fill="#6b665c" text-anchor="middle">New</text>
  <line x1="860.0" y1="294.0" x2="1160.0" y2="294.0" stroke="#e7e1d3" stroke-width="1"/>
  <circle cx="875.0" cy="264.0" r="15.0" fill="#fdfaf4" stroke="#1a1a1a" stroke-width="1.5"/>
  <text x="904.0" y="260.0" font-family="Inter, system-ui, sans-serif" font-size="14" font-weight="600" fill="#1a1a1a" text-anchor="start">Priya</text>
  <rect x="1104.1" y="250.0" width="55.9" height="22.0" rx="11.0" fill="none" stroke="#e7e1d3" stroke-width="1.5"/>
  <text x="1132.0" y="265.0" font-family="Inter, system-ui, sans-serif" font-size="11" font-weight="400" fill="#6b665c" text-anchor="middle">Guide</text>
  <line x1="860.0" y1="346.0" x2="1160.0" y2="346.0" stroke="#e7e1d3" stroke-width="1"/>
  <circle cx="875.0" cy="316.0" r="15.0" fill="#fdfaf4" stroke="#1a1a1a" stroke-width="1.5"/>
  <text x="904.0" y="312.0" font-family="Inter, system-ui, sans-serif" font-size="14" font-weight="600" fill="#1a1a1a" text-anchor="start">Lucas</text>
  <rect x="1097.7" y="302.0" width="62.3" height="22.0" rx="11.0" fill="none" stroke="#e87722" stroke-width="1.5"/>
  <text x="1128.9" y="317.0" font-family="Inter, system-ui, sans-serif" font-size="11" font-weight="400" fill="#e87722" text-anchor="middle">Helper</text>
  <line x1="860.0" y1="398.0" x2="1160.0" y2="398.0" stroke="#e7e1d3" stroke-width="1"/>
  <circle cx="875.0" cy="368.0" r="15.0" fill="#fdfaf4" stroke="#1a1a1a" stroke-width="1.5"/>
  <text x="904.0" y="364.0" font-family="Inter, system-ui, sans-serif" font-size="14" font-weight="600" fill="#1a1a1a" text-anchor="start">Nadia</text>
  <rect x="1116.9" y="354.0" width="43.1" height="22.0" rx="11.0" fill="none" stroke="#e7e1d3" stroke-width="1.5"/>
  <text x="1138.4" y="369.0" font-family="Inter, system-ui, sans-serif" font-size="11" font-weight="400" fill="#6b665c" text-anchor="middle">New</text>
  <rect x="860.0" y="416.0" width="300.0" height="280.0" rx="4" fill="#f7f2e7" stroke="#e7e1d3" stroke-width="1.5"/>
  <text x="874.0" y="440.0" font-family="Inter, system-ui, sans-serif" font-size="12" font-weight="400" fill="#6b665c" text-anchor="start">Standing comes from evidenced</text>
  <text x="874.0" y="458.0" font-family="Inter, system-ui, sans-serif" font-size="12" font-weight="400" fill="#6b665c" text-anchor="start">help to others. No followers,</text>
  <text x="874.0" y="476.0" font-family="Inter, system-ui, sans-serif" font-size="12" font-weight="400" fill="#6b665c" text-anchor="start">no streaks.</text>
  <line x1="40.0" y1="716.0" x2="1160.0" y2="716.0" stroke="#e7e1d3" stroke-width="1.5"/>
  <text x="40.0" y="738.0" font-family="Inter, system-ui, sans-serif" font-size="13" font-weight="400" fill="#6b665c" text-anchor="start">Shared social hub where standing reflects verified help given, not attention metrics.</text>
</svg>
